<svg width="25" height="24" viewBox="0 0 25 24" fill="none" xmlns="http://www.w3.org/2000/svg">
<path d="M12.3999 7C9.6399 7 7.3999 9.24 7.3999 12C7.3999 14.76 9.6399 17 12.3999 17C15.1599 17 17.3999 14.76 17.3999 12C17.3999 9.24 15.1599 7 12.3999 7ZM12.3999 2C6.8799 2 2.3999 6.48 2.3999 12C2.3999 17.52 6.8799 22 12.3999 22C17.9199 22 22.3999 17.52 22.3999 12C22.3999 6.48 17.9199 2 12.3999 2ZM12.3999 20C7.9799 20 4.3999 16.42 4.3999 12C4.3999 7.58 7.9799 4 12.3999 4C16.8199 4 20.3999 7.58 20.3999 12C20.3999 16.42 16.8199 20 12.3999 20Z" fill="#2196F3"/>
</svg>
